<svg xmlns="http://www.w3.org/2000/svg" version="1.1" xmlns:xlink="http://www.w3.org/1999/xlink" xmlns:svgjs="http://svgjs.dev/svgjs" viewBox="0 0 800 800" opacity="1"><defs><filter id="bbburst-blur-1" x="-100%" y="-100%" width="400%" height="400%"><feGaussianBlur in="SourceGraphic" stdDeviation="1"></feGaussianBlur></filter><filter id="bbburst-blur-2" x="-100%" y="-100%" width="400%" height="400%"><feGaussianBlur in="SourceGraphic" stdDeviation="2"></feGaussianBlur></filter><filter id="bbburst-blur-3" x="-100%" y="-100%" width="400%" height="400%"><feGaussianBlur in="SourceGraphic" stdDeviation="4"></feGaussianBlur></filter><filter id="bbburst-blur-4" x="-100%" y="-100%" width="400%" height="400%"><feGaussianBlur in="SourceGraphic" stdDeviation="12"></feGaussianBlur></filter><symbol id="bbburst-shape-1" viewBox="0 0 194 167"><path d="m97 0 96.129 166.5H.871L97 0Z"></path></symbol><symbol id="bbburst-shape-2" viewBox="0 0 126 115"><path d="m63 0 62.77 43.877-23.976 70.996H24.206L.23 43.877 63 0Z"></path></symbol><symbol id="bbburst-shape-3" viewBox="0 0 131 127"><path d="m66 0 66 63.5L66 127 0 63.5 66 0Z"></path></symbol><symbol id="bbburst-shape-4" viewBox="0 0 149 143"><path d="M71.647 2.781c.898-2.764 4.808-2.764 5.706 0l15.445 47.534a3 3 0 0 0 2.853 2.073h49.98c2.906 0 4.115 3.719 1.764 5.427L106.96 87.193a2.999 2.999 0 0 0-1.09 3.354l15.445 47.534c.898 2.764-2.266 5.062-4.617 3.354l-40.435-29.378a3 3 0 0 0-3.526 0l-40.435 29.378c-2.351 1.708-5.515-.59-4.617-3.354L43.13 90.547a3 3 0 0 0-1.09-3.354L1.605 57.815c-2.35-1.708-1.142-5.427 1.764-5.427h49.98a3 3 0 0 0 2.853-2.073L71.647 2.781Z"></path></symbol><symbol id="bbburst-shape-5" viewBox="0 0 145 145"><circle cx="72.5" cy="72.5" r="72.5"></circle></symbol><symbol id="bbburst-shape-8" viewBox="0 0 87 168"><path d="m12 12 31.2546 18.0749c16.4102 9.4902 20.014 31.6325 7.4603 45.8369L36.3296 92.1884c-12.5684 14.2206-8.9394 36.3916 7.5068 45.8636L75 156" stroke-width="14" stroke-linecap="round" stroke-linejoin="round"></path></symbol><symbol id="bbburst-shape-9" viewBox="0 0 182 172"><path d="M13.5809 69.845 91 13.5967l77.419 56.2483-29.571 91.012H43.1524L13.5809 69.845Z" stroke-width="22"></path></symbol><symbol id="bbburst-shape-10" viewBox="0 0 145 145"><circle cx="72.5" cy="72.5" r="61.5" fill="none" stroke-width="22"></circle></symbol><symbol id="bbburst-shape-11" viewBox="0 0 194 167"><path d="M10.398 161 97 11l86.603 150H10.397Z" stroke-width="11"></path></symbol><symbol id="bbburst-shape-13" viewBox="0 0 159 159"><path stroke-width="22" d="M11 11h137v137H11z"></path></symbol><symbol id="bbburst-shape-14" viewBox="0 0 185 109"><path d="M168 16.5C168 58.1975 134.197 92 92.5 92 50.8025 92 17 58.1975 17 16.5" stroke-width="33" stroke-linecap="round"></path></symbol></defs><use xlink:href="#bbburst-shape-9" width="42.54035420576824" opacity="0.33968860770405407" transform="matrix(0.9188567517114498,-0.39459126933357663,0.39459126933357663,0.9188567517114498,515.5658219149166,-8.48717049677407)" fill="none" stroke="#555555" filter="url(#bbburst-blur-2)"></use><use xlink:href="#bbburst-shape-10" width="16.439489819035135" opacity="0.9857204508316143" transform="matrix(0.7105365317304078,0.7036603137001001,-0.7036603137001001,0.7105365317304078,678.6608299930915,104.33874987975827)" fill="none" stroke="#555555"></use><use xlink:href="#bbburst-shape-10" width="32.71025364715695" opacity="-0.07279617862020937" transform="matrix(1.3193428070751916,1.1497106407348563,-1.1497106407348563,1.3193428070751916,1161.7832762601952,-504.89558602346716)" fill="none" stroke="#555555" filter="url(#bbburst-blur-4)"></use><use xlink:href="#bbburst-shape-14" width="43.47854969400817" opacity="0.16009820755297588" transform="matrix(1.0137735802240915,-0.7312750016509708,0.7312750016509708,1.0137735802240915,-190.68837674231554,-247.57137272360922)" fill="none" stroke="#555555" filter="url(#bbburst-blur-3)"></use><use xlink:href="#bbburst-shape-4" width="24.910778640763386" opacity="0.8060759496231976" transform="matrix(0.8115113432407938,-0.5843366664787711,0.5843366664787711,0.8115113432407938,116.66681683364789,160.50429429687887)" fill="#555555"></use><use xlink:href="#bbburst-shape-2" width="16.143452211806707" opacity="0.8580216293183944" transform="matrix(0.961368686716416,-0.2752639609559408,0.2752639609559408,0.961368686716416,330.76853672754044,59.11789820975497)" fill="#555555"></use><use xlink:href="#bbburst-shape-14" width="16.053586013573543" opacity="0.909523116476295" transform="matrix(0.8084722308021025,0.5885343252707287,-0.5885343252707287,0.8084722308021025,592.1704329795103,54.36119922466611)" fill="none" stroke="#555555"></use><use xlink:href="#bbburst-shape-8" width="33.069632892348054" opacity="0.20608683332008315" transform="matrix(1.2212174920941812,-0.26669802587045577,0.26669802587045577,1.2212174920941812,338.4638927766101,-435.31304911445835)" fill="none" stroke="#555555" filter="url(#bbburst-blur-3)"></use><use xlink:href="#bbburst-shape-3" width="19.796899799362432" opacity="0.6756511864908612" transform="matrix(0.9170768237066025,0.39871054591045024,-0.39871054591045024,0.9170768237066025,694.9720088274215,48.79434517535918)" fill="#555555" filter="url(#bbburst-blur-1)"></use><use xlink:href="#bbburst-shape-14" width="30.732731454009368" opacity="0.08418926693311968" transform="matrix(1.6951272079632727,-0.4347916154005724,0.4347916154005724,1.6951272079632727,-8.287430246089599,84.27447720642147)" fill="none" stroke="#555555" filter="url(#bbburst-blur-4)"></use><use xlink:href="#bbburst-shape-8" width="35.9566573480541" opacity="0.490210775059324" transform="matrix(0.7294159626706642,0.6840704301468001,-0.6840704301468001,0.7294159626706642,447.8199203745683,9.983194858693992)" fill="none" stroke="#555555" filter="url(#bbburst-blur-2)"></use><use xlink:href="#bbburst-shape-8" width="50.0617031916707" opacity="-0.08480039820081209" transform="matrix(1.5851199416708137,-0.7415488996131786,0.7415488996131786,1.5851199416708137,-278.91813632348794,132.23586338247276)" fill="none" stroke="#555555" filter="url(#bbburst-blur-4)"></use><use xlink:href="#bbburst-shape-14" width="28.420883528644676" opacity="0.5762492528921757" transform="matrix(0.9417953448596205,0.3361867463192868,-0.3361867463192868,0.9417953448596205,515.1534730923065,-172.05507941986016)" fill="none" stroke="#555555" filter="url(#bbburst-blur-1)"></use><use xlink:href="#bbburst-shape-14" width="38.279320578516476" opacity="0.28785809872944923" transform="matrix(1.2282796684976254,-0.23201089619964643,0.23201089619964643,1.2282796684976254,-36.13020596547035,-106.96943104613183)" fill="none" stroke="#555555" filter="url(#bbburst-blur-3)"></use><use xlink:href="#bbburst-shape-14" width="32.78999158709571" opacity="0.4727140454382601" transform="matrix(0.8399704086804943,0.5426322074307084,-0.5426322074307084,0.8399704086804943,366.19151778152366,45.108553098049015)" fill="none" stroke="#555555" filter="url(#bbburst-blur-2)"></use><use xlink:href="#bbburst-shape-10" width="30.19380005889776" opacity="0.5006696597032505" transform="matrix(0.776643713296791,-0.6299401103252371,0.6299401103252371,0.776643713296791,223.65145852161658,-108.17159251501991)" fill="none" stroke="#555555" filter="url(#bbburst-blur-2)"></use><use xlink:href="#bbburst-shape-3" width="22.519918227133232" opacity="0.7217673967269076" transform="matrix(0.8338329064110646,0.5520169238221568,-0.5520169238221568,0.8338329064110646,532.6176831585185,-37.151496084763835)" fill="#555555" filter="url(#bbburst-blur-1)"></use><use xlink:href="#bbburst-shape-5" width="32.36255549450499" opacity="0.30881315716752367" transform="matrix(1.2499876338776705,0.005560139647755995,-0.005560139647755995,1.2499876338776705,194.3112226379595,147.93916942971566)" fill="#555555" filter="url(#bbburst-blur-3)"></use><use xlink:href="#bbburst-shape-8" width="31.243818337763358" opacity="0.42223254472641325" transform="matrix(0.9399169985607374,0.3414030401396197,-0.3414030401396197,0.9399169985607374,313.5917140988568,174.30973674296615)" fill="none" stroke="#555555" filter="url(#bbburst-blur-2)"></use><use xlink:href="#bbburst-shape-8" width="41.877609515573326" opacity="0.4818711982751117" transform="matrix(0.9323107850727137,-0.3616581259105072,0.3616581259105072,0.9323107850727137,467.763973380385,58.36419249520429)" fill="none" stroke="#555555" filter="url(#bbburst-blur-2)"></use><use xlink:href="#bbburst-shape-3" width="31.965359529974513" opacity="0.4202485060187777" transform="matrix(0.9395055424759625,0.3425337000310297,-0.3425337000310297,0.9395055424759625,463.4032920356827,-235.56801465588313)" fill="#555555" filter="url(#bbburst-blur-2)"></use><use xlink:href="#bbburst-shape-3" width="31.556414302280764" opacity="0.110485491245778" transform="matrix(1.2544585328064453,1.220177769617649,-1.220177769617649,1.2544585328064453,1046.7497950415739,-479.3992704804366)" fill="#555555" filter="url(#bbburst-blur-4)"></use><use xlink:href="#bbburst-shape-3" width="19.709309863954108" opacity="0.7587854495854569" transform="matrix(0.9215340632748372,0.38829752796556455,-0.38829752796556455,0.9215340632748372,593.8299108554893,-69.99232464687503)" fill="#555555" filter="url(#bbburst-blur-1)"></use><use xlink:href="#bbburst-shape-9" width="21.64419244992956" opacity="0.7009300705696494" transform="matrix(0.95798830256604,0.2868072735246398,-0.2868072735246398,0.95798830256604,376.19151832975825,54.49323949963059)" fill="none" stroke="#555555" filter="url(#bbburst-blur-1)"></use><use xlink:href="#bbburst-shape-1" width="39.814437273696434" opacity="0.1638896272363407" transform="matrix(1.193952286831449,0.37010530497407546,-0.37010530497407546,1.193952286831449,158.47915066482523,-173.04603471692644)" fill="#555555" filter="url(#bbburst-blur-3)"></use><use xlink:href="#bbburst-shape-2" width="32.20622584081237" opacity="0.13668219176445406" transform="matrix(1.2368967595879965,-0.18051705216049266,0.18051705216049266,1.2368967595879965,32.4048463811409,182.10482982592237)" fill="#555555" filter="url(#bbburst-blur-3)"></use><use xlink:href="#bbburst-shape-8" width="26.811252681363214" opacity="0.5750680160161523" transform="matrix(0.9997865242382348,0.020661702534630164,-0.020661702534630164,0.9997865242382348,526.676547370768,-138.71869848373524)" fill="none" stroke="#555555" filter="url(#bbburst-blur-1)"></use><use xlink:href="#bbburst-shape-5" width="27.307293126954377" opacity="0.5562707739150661" transform="matrix(0.9989183576660339,0.04649854532986694,-0.04649854532986694,0.9989183576660339,539.0722840464473,147.7349596034117)" fill="#555555" filter="url(#bbburst-blur-1)"></use><use xlink:href="#bbburst-shape-2" width="34.657992624737474" opacity="0.39945212223020277" transform="matrix(0.9886751153751168,-0.1500717036552846,0.1500717036552846,0.9886751153751168,348.0921667131045,-261.9164395625137)" fill="#555555" filter="url(#bbburst-blur-2)"></use><use xlink:href="#bbburst-shape-10" width="18.75465799066918" opacity="0.8237012949935295" transform="matrix(0.9894441304436671,0.1449148464808746,-0.1449148464808746,0.9894441304436671,374.7321848485641,31.57835866293641)" fill="none" stroke="#555555"></use><use xlink:href="#bbburst-shape-1" width="51.112653717334965" opacity="-0.06701192563711444" transform="matrix(1.4663038844118315,0.9552240148566061,-0.9552240148566061,1.4663038844118315,1091.275656207346,121.32684902021072)" fill="#555555" filter="url(#bbburst-blur-4)"></use><use xlink:href="#bbburst-shape-14" width="42.461075315532696" opacity="0.4014469725341894" transform="matrix(0.7328976080517617,0.680338956779638,-0.680338956779638,0.7328976080517617,891.3573830618566,224.37871573003946)" fill="none" stroke="#555555" filter="url(#bbburst-blur-2)"></use><use xlink:href="#bbburst-shape-8" width="18.761021230357425" opacity="0.7611758408580512" transform="matrix(0.8445056524474389,0.5355466394109158,-0.5355466394109158,0.8445056524474389,499.8151916553776,42.62542319312331)" fill="none" stroke="#555555" filter="url(#bbburst-blur-1)"></use><use xlink:href="#bbburst-shape-11" width="34.280452606036455" opacity="0.06817664954507219" transform="matrix(1.699450126859942,0.4175754618218445,-0.4175754618218445,1.699450126859942,320.2688271481841,-645.997359304818)" fill="none" stroke="#555555" filter="url(#bbburst-blur-4)"></use><use xlink:href="#bbburst-shape-1" width="40.71076001819966" opacity="0.45262428864680804" transform="matrix(0.9823010325331852,-0.18730905339635406,0.18730905339635406,0.9823010325331852,388.19843639002744,242.81936330995694)" fill="#555555" filter="url(#bbburst-blur-2)"></use><use xlink:href="#bbburst-shape-4" width="17.350796660878046" opacity="0.8081551956988224" transform="matrix(0.9016078026782984,-0.43255447073127173,0.43255447073127173,0.9016078026782984,289.45348313134684,-6.9979020540890815)" fill="#555555"></use><use xlink:href="#bbburst-shape-9" width="35.72608292405186" opacity="0.10316834123528462" transform="matrix(1.3560415716502228,-1.1061877128030275,1.1061877128030275,1.3560415716502228,291.9557484834169,61.53881875392585)" fill="none" stroke="#555555" filter="url(#bbburst-blur-4)"></use><use xlink:href="#bbburst-shape-5" width="19.525249869745437" opacity="0.9002966060271936" transform="matrix(0.9879414819192753,0.154827737512198,-0.154827737512198,0.9879414819192753,457.4447492702114,47.880883555848925)" fill="#555555"></use><use xlink:href="#bbburst-shape-13" width="33.98110583989597" opacity="0.3269160582802053" transform="matrix(1.2451583686308356,-0.10991195125461041,0.10991195125461041,1.2451583686308356,471.051323798621,-366.74752468039645)" fill="none" stroke="#555555" filter="url(#bbburst-blur-3)"></use><use xlink:href="#bbburst-shape-4" width="25.944718067986646" opacity="0.1967147864576969" transform="matrix(0.9170690711768591,0.8494023302833664,-0.8494023302833664,0.9170690711768591,721.2479051560165,383.59333150740684)" fill="#555555" filter="url(#bbburst-blur-3)"></use><use xlink:href="#bbburst-shape-2" width="30.551398412955244" opacity="0.5534535216866256" transform="matrix(0.913664585532338,-0.4064689719326939,0.4064689719326939,0.913664585532338,37.222716899827645,116.2176753910129)" fill="#555555" filter="url(#bbburst-blur-2)"></use><use xlink:href="#bbburst-shape-5" width="35.42967289649127" opacity="0.3776972292144348" transform="matrix(0.9999173966935467,-0.012853007025605372,0.012853007025605372,0.9999173966935467,105.85150726758056,69.68630256529275)" fill="#555555" filter="url(#bbburst-blur-2)"></use><use xlink:href="#bbburst-shape-2" width="32.294873279911876" opacity="0.27193694285716796" transform="matrix(1.2277405022489944,-0.2348473102621933,0.2348473102621933,1.2277405022489944,565.9449422472259,-257.88744322401925)" fill="#555555" filter="url(#bbburst-blur-3)"></use><use xlink:href="#bbburst-shape-10" width="28.096310538792228" opacity="0.2578443458373596" transform="matrix(1.2304586867965417,-0.2201622585433986,0.2201622585433986,1.2304586867965417,470.6649606592383,194.73068244639717)" fill="none" stroke="#555555" filter="url(#bbburst-blur-3)"></use><use xlink:href="#bbburst-shape-4" width="42.55832715124807" opacity="0.19025450702120816" transform="matrix(1.1008798520720553,0.5920840745213553,-0.5920840745213553,1.1008798520720553,890.800526192179,183.34841845212208)" fill="#555555" filter="url(#bbburst-blur-3)"></use><use xlink:href="#bbburst-shape-8" width="42.74625158943724" opacity="0.37830898226105847" transform="matrix(0.9181089649123538,-0.39632805672519095,0.39632805672519095,0.9181089649123538,8.463985226949461,-139.6991445443044)" fill="none" stroke="#555555" filter="url(#bbburst-blur-2)"></use><use xlink:href="#bbburst-shape-11" width="20.637801788709773" opacity="0.8774543928822226" transform="matrix(0.8754509563896262,0.4833069655575933,-0.4833069655575933,0.8754509563896262,603.4796061347165,-7.146638434394049)" fill="none" stroke="#555555"></use><use xlink:href="#bbburst-shape-14" width="34.89445261615201" opacity="0.27045178841536366" transform="matrix(1.2408779261602323,-0.15073809196179055,0.15073809196179055,1.2408779261602323,134.71384498945127,-365.99001501465983)" fill="none" stroke="#555555" filter="url(#bbburst-blur-3)"></use><use xlink:href="#bbburst-shape-2" width="15.168603988697702" opacity="0.9012141729872751" transform="matrix(0.9929379603464334,-0.11863476262489216,0.11863476262489216,0.9929379603464334,389.0635656730519,-2.2644486605424277)" fill="#555555"></use><use xlink:href="#bbburst-shape-14" width="19.39625633000277" opacity="0.676652149134035" transform="matrix(0.7947158368281649,0.6069816625685736,-0.6069816625685736,0.7947158368281649,713.4497197949686,198.83947137794945)" fill="none" stroke="#555555" filter="url(#bbburst-blur-1)"></use><use xlink:href="#bbburst-shape-11" width="44.81249650592315" opacity="0.19247085148129173" transform="matrix(1.119722331358335,-0.5556274837131934,0.5556274837131934,1.119722331358335,253.95635550835487,312.8049254627134)" fill="none" stroke="#555555" filter="url(#bbburst-blur-3)"></use><use xlink:href="#bbburst-shape-10" width="42.827457344343244" opacity="0.02615560666497374" transform="matrix(1.7399150478471368,-0.18760497401480553,0.18760497401480553,1.7399150478471368,640.9141987816365,-551.3426311246702)" fill="none" stroke="#555555" filter="url(#bbburst-blur-4)"></use><use xlink:href="#bbburst-shape-11" width="30.503986540196742" opacity="0.4796065151067582" transform="matrix(0.8356626190661889,0.5492431038214659,-0.5492431038214659,0.8356626190661889,822.6348954855575,-34.69163842593798)" fill="none" stroke="#555555" filter="url(#bbburst-blur-2)"></use><use xlink:href="#bbburst-shape-5" width="37.36594810828478" opacity="0.2594438072409435" transform="matrix(1.2424886211304504,-0.13682845596348678,0.13682845596348678,1.2424886211304504,643.6825009249222,-7.194256938082503)" fill="#555555" filter="url(#bbburst-blur-3)"></use><use xlink:href="#bbburst-shape-14" width="30.521499584514373" opacity="0.6620730171784575" transform="matrix(0.7313277857554159,-0.6820261503652777,0.6820261503652777,0.7313277857554159,-20.87401712473627,51.768784995977114)" fill="none" stroke="#555555" filter="url(#bbburst-blur-1)"></use><use xlink:href="#bbburst-shape-10" width="36.85331192007279" opacity="0.37845264316038574" transform="matrix(0.8913907748811645,0.45323557501232964,-0.45323557501232964,0.8913907748811645,570.6588299926136,314.72844938200234)" fill="none" stroke="#555555" filter="url(#bbburst-blur-2)"></use><use xlink:href="#bbburst-shape-9" width="30.734269036845838" opacity="0.40502888582214436" transform="matrix(0.9716095659759522,0.2365900490384621,-0.2365900490384621,0.9716095659759522,670.457463372424,-180.40464363802857)" fill="none" stroke="#555555" filter="url(#bbburst-blur-2)"></use><use xlink:href="#bbburst-shape-13" width="29.266172403018807" opacity="0.14778767936974535" transform="matrix(1.1161801194322813,-0.5627094640968271,0.5627094640968271,1.1161801194322813,518.8457433213312,-169.6898759646349)" fill="none" stroke="#555555" filter="url(#bbburst-blur-3)"></use><use xlink:href="#bbburst-shape-4" width="36.37392603054487" opacity="0.561961522512471" transform="matrix(0.9750485786542108,0.22199159728332826,-0.22199159728332826,0.9750485786542108,326.5820325127297,-128.1234082007918)" fill="#555555" filter="url(#bbburst-blur-1)"></use><use xlink:href="#bbburst-shape-9" width="22.7925425987245" opacity="0.6774870912826062" transform="matrix(0.8689778328532253,0.49485101395239356,-0.49485101395239356,0.8689778328532253,541.5701973192187,184.10114411290022)" fill="none" stroke="#555555" filter="url(#bbburst-blur-1)"></use><use xlink:href="#bbburst-shape-1" width="38.380745728903236" opacity="0.5512008869205771" transform="matrix(0.8963453673002535,0.44335649597065085,-0.44335649597065085,0.8963453673002535,434.80037059978696,191.373499287252)" fill="#555555" filter="url(#bbburst-blur-2)"></use><use xlink:href="#bbburst-shape-14" width="26.52955439280919" opacity="0.7287062262090409" transform="matrix(0.9200547237876386,-0.3917898738304143,0.3917898738304143,0.9200547237876386,216.19504595977205,-83.96158554137116)" fill="none" stroke="#555555" filter="url(#bbburst-blur-1)"></use><use xlink:href="#bbburst-shape-9" width="43.89453245722374" opacity="0.059811867972130894" transform="matrix(1.38104840794444,-1.0748047706044699,1.0748047706044699,1.38104840794444,-422.7044953804335,89.4956948095654)" fill="none" stroke="#555555" filter="url(#bbburst-blur-4)"></use><use xlink:href="#bbburst-shape-8" width="30.8176743990921" opacity="0.19306958581520584" transform="matrix(0.9202746351430682,0.8459282451321108,-0.8459282451321108,0.9202746351430682,1087.2956210155198,22.042607685649955)" fill="none" stroke="#555555" filter="url(#bbburst-blur-3)"></use><use xlink:href="#bbburst-shape-14" width="25.255250978321225" opacity="0.6050046825648905" transform="matrix(0.7204518548017138,0.6935049566605637,-0.6935049566605637,0.7204518548017138,594.952527266199,-58.831012595485106)" fill="none" stroke="#555555" filter="url(#bbburst-blur-1)"></use><use xlink:href="#bbburst-shape-2" width="30.754495479388503" opacity="0.5370877408233332" transform="matrix(0.9999980743365995,0.0019624788133302713,-0.0019624788133302713,0.9999980743365995,355.5819402775841,206.1503333319855)" fill="#555555" filter="url(#bbburst-blur-2)"></use><use xlink:href="#bbburst-shape-5" width="40.41557472302774" opacity="0.17710263770707024" transform="matrix(1.170509297722194,0.4386433448097626,-0.4386433448097626,1.170509297722194,189.02170993253566,-2.811565453947992)" fill="#555555" filter="url(#bbburst-blur-3)"></use><use xlink:href="#bbburst-shape-8" width="20.774004474575133" opacity="0.6869067635192456" transform="matrix(0.9600506217046113,-0.27982638146641814,0.27982638146641814,0.9600506217046113,392.97354956278735,-62.68583659995227)" fill="none" stroke="#555555" filter="url(#bbburst-blur-1)"></use><use xlink:href="#bbburst-shape-3" width="33.27444720928348" opacity="0.6207905129969853" transform="matrix(0.9978717725818321,0.06520679017090324,-0.06520679017090324,0.9978717725818321,238.82641825169844,-6.546881657555048)" fill="#555555" filter="url(#bbburst-blur-1)"></use><use xlink:href="#bbburst-shape-2" width="27.173788451089695" opacity="0.627706478352957" transform="matrix(0.9107008660207804,-0.41306649903980436,0.41306649903980436,0.9107008660207804,251.20817793079647,206.3819891134271)" fill="#555555" filter="url(#bbburst-blur-1)"></use><use xlink:href="#bbburst-shape-4" width="36.34279722308964" opacity="0.4448974310857968" transform="matrix(0.9506964229510916,-0.31012305845905613,0.31012305845905613,0.9506964229510916,130.38385906393793,-188.94057564469978)" fill="#555555" filter="url(#bbburst-blur-2)"></use><use xlink:href="#bbburst-shape-4" width="29.40047321950049" opacity="0.7810138085568219" transform="matrix(0.9306711965095559,0.36585669870520565,-0.36585669870520565,0.9306711965095559,551.8927569032619,119.0252674273193)" fill="#555555"></use><use xlink:href="#bbburst-shape-13" width="53.33780512028652" opacity="0.17933770099060908" transform="matrix(1.0658191631839689,-0.6530922686648679,0.6530922686648679,1.0658191631839689,354.50335250529565,-285.97491319588914)" fill="none" stroke="#555555" filter="url(#bbburst-blur-3)"></use><use xlink:href="#bbburst-shape-8" width="39.05927430527751" opacity="0.20863653394010007" transform="matrix(1.1893765230795628,0.3845562200084277,-0.3845562200084277,1.1893765230795628,416.65030636943845,-420.6532228234419)" fill="none" stroke="#555555" filter="url(#bbburst-blur-3)"></use><use xlink:href="#bbburst-shape-14" width="26.730903009348783" opacity="0.6232964797592413" transform="matrix(0.777587843847409,-0.6287743196892963,0.6287743196892963,0.777587843847409,303.20204074007853,58.87602485393842)" fill="none" stroke="#555555" filter="url(#bbburst-blur-1)"></use><use xlink:href="#bbburst-shape-5" width="41.980221276589745" opacity="0.07363510968767606" transform="matrix(1.613953863089197,-0.676500500975023,0.676500500975023,1.613953863089197,-262.9311293322746,-444.18819254799394)" fill="#555555" filter="url(#bbburst-blur-4)"></use><use xlink:href="#bbburst-shape-2" width="40.8547661664507" opacity="0.29606375578689315" transform="matrix(1.2423192666089817,0.1383576518018489,-0.1383576518018489,1.2423192666089817,142.23575326648907,-232.2318465021287)" fill="#555555" filter="url(#bbburst-blur-3)"></use><use xlink:href="#bbburst-shape-11" width="21.123939314150697" opacity="0.6476721705366446" transform="matrix(0.9064262147749769,0.422364199676899,-0.422364199676899,0.9064262147749769,610.0199047181843,-117.55711392662704)" fill="none" stroke="#555555" filter="url(#bbburst-blur-1)"></use><use xlink:href="#bbburst-shape-4" width="26.73102904222003" opacity="0.5946476503208018" transform="matrix(0.8979569611877606,-0.44008328286182685,0.44008328286182685,0.8979569611877606,375.9878086753937,126.55140682696111)" fill="#555555" filter="url(#bbburst-blur-1)"></use><use xlink:href="#bbburst-shape-3" width="45.94274282127398" opacity="0.210262267996161" transform="matrix(1.2244553623803371,0.25141413154004943,-0.25141413154004943,1.2244553623803371,369.31087638478556,244.55331604478488)" fill="#555555" filter="url(#bbburst-blur-3)"></use><use xlink:href="#bbburst-shape-3" width="21.176846989637294" opacity="0.6927609612318065" transform="matrix(0.999998883544853,0.001494292155995543,-0.001494292155995543,0.999998883544853,287.28217013607065,92.60680423874874)" fill="#555555" filter="url(#bbburst-blur-1)"></use><use xlink:href="#bbburst-shape-11" width="22.009915728329744" opacity="0.8154784875153954" transform="matrix(0.7593622839112079,-0.6506680580550686,0.6506680580550686,0.7593622839112079,61.79404411433643,57.606896867977696)" fill="none" stroke="#555555"></use><use xlink:href="#bbburst-shape-1" width="19.7480300435666" opacity="0.7877767551836413" transform="matrix(0.7126431870500388,-0.7015266837057329,0.7015266837057329,0.7126431870500388,207.61693389437966,114.92649561846906)" fill="#555555"></use><use xlink:href="#bbburst-shape-1" width="35.51895218939295" opacity="0.3983620884579001" transform="matrix(0.8740210220971686,-0.48588810742003224,0.48588810742003224,0.8740210220971686,367.4689720094218,263.64493461290186)" fill="#555555" filter="url(#bbburst-blur-2)"></use><use xlink:href="#bbburst-shape-8" width="32.67905156021502" opacity="0.05768069350385219" transform="matrix(1.5373076067285554,-0.8361730217452137,0.8361730217452137,1.5373076067285554,271.69948789905106,154.1536226385947)" fill="none" stroke="#555555" filter="url(#bbburst-blur-4)"></use><use xlink:href="#bbburst-shape-13" width="38.1485240498174" opacity="-0.07752963583389239" transform="matrix(1.702046491960885,0.40686329301578056,-0.40686329301578056,1.702046491960885,187.8091183253439,-631.8435194985577)" fill="none" stroke="#555555" filter="url(#bbburst-blur-4)"></use><use xlink:href="#bbburst-shape-4" width="35.265888385711136" opacity="0.41810301433433017" transform="matrix(0.8387749210231296,-0.5444783116549665,0.5444783116549665,0.8387749210231296,67.89782738013818,316.3148609760275)" fill="#555555" filter="url(#bbburst-blur-2)"></use><use xlink:href="#bbburst-shape-10" width="22.950689996941538" opacity="0.838408509976382" transform="matrix(0.7917820956061588,0.6108036616438377,-0.6108036616438377,0.7917820956061588,612.8854085261377,7.081771347645713)" fill="none" stroke="#555555"></use><use xlink:href="#bbburst-shape-14" width="17.3355783892791" opacity="0.9081349418092778" transform="matrix(0.9973849744277918,-0.07227179799668075,0.07227179799668075,0.9973849744277918,331.0178308281131,28.548920032122908)" fill="none" stroke="#555555"></use><use xlink:href="#bbburst-shape-9" width="29.786859568422837" opacity="0.2025158687018398" transform="matrix(1.143925299095254,0.503919547239273,-0.503919547239273,1.143925299095254,552.1686152820816,-422.70140644644067)" fill="none" stroke="#555555" filter="url(#bbburst-blur-3)"></use><use xlink:href="#bbburst-shape-2" width="23.613448532221863" opacity="0.7518727634214623" transform="matrix(0.9964893012097101,0.08372020410022649,-0.08372020410022649,0.9964893012097101,514.5577679757961,62.466586457010294)" fill="#555555" filter="url(#bbburst-blur-1)"></use><use xlink:href="#bbburst-shape-3" width="42.483107314912694" opacity="0.25270233435897616" transform="matrix(1.0237709454746984,0.7172119987854653,-0.7172119987854653,1.0237709454746984,369.8929214327317,136.4324432057715)" fill="#555555" filter="url(#bbburst-blur-3)"></use></svg>