<svg xmlns="http://www.w3.org/2000/svg" version="1.1" xmlns:xlink="http://www.w3.org/1999/xlink" xmlns:svgjs="http://svgjs.dev/svgjs" viewBox="0 0 800 800" width="800" height="800"><g stroke-width="3.5" stroke="hsla(0, 0%, 100%, 1.00)" fill="none"><circle r="4.289473684210526" cx="0" cy="0" fill="hsla(0, 0%, 100%, 1.00)" stroke="none"></circle><circle r="4.289473684210526" cx="160" cy="0" fill="hsla(0, 0%, 100%, 1.00)" stroke="none"></circle><circle r="4.289473684210526" cx="320" cy="0" fill="hsla(0, 0%, 100%, 1.00)" stroke="none"></circle><circle r="4.289473684210526" cx="480" cy="0" fill="hsla(0, 0%, 100%, 1.00)" stroke="none"></circle><circle r="4.289473684210526" cx="640" cy="0" fill="hsla(0, 0%, 100%, 1.00)" stroke="none"></circle><circle r="4.289473684210526" cx="800" cy="0" fill="hsla(0, 0%, 100%, 1.00)" stroke="none"></circle><circle r="4.289473684210526" cx="0" cy="160" fill="hsla(0, 0%, 100%, 1.00)" stroke="none"></circle><circle r="4.289473684210526" cx="160" cy="160" fill="hsla(0, 0%, 100%, 1.00)" stroke="none"></circle><circle r="4.289473684210526" cx="320" cy="160" fill="hsla(0, 0%, 100%, 1.00)" stroke="none"></circle><circle r="4.289473684210526" cx="480" cy="160" fill="hsla(0, 0%, 100%, 1.00)" stroke="none"></circle><circle r="4.289473684210526" cx="640" cy="160" fill="hsla(0, 0%, 100%, 1.00)" stroke="none"></circle><circle r="4.289473684210526" cx="800" cy="160" fill="hsla(0, 0%, 100%, 1.00)" stroke="none"></circle><circle r="4.289473684210526" cx="0" cy="320" fill="hsla(0, 0%, 100%, 1.00)" stroke="none"></circle><circle r="4.289473684210526" cx="160" cy="320" fill="hsla(0, 0%, 100%, 1.00)" stroke="none"></circle><circle r="4.289473684210526" cx="320" cy="320" fill="hsla(0, 0%, 100%, 1.00)" stroke="none"></circle><circle r="4.289473684210526" cx="480" cy="320" fill="hsla(0, 0%, 100%, 1.00)" stroke="none"></circle><circle r="4.289473684210526" cx="640" cy="320" fill="hsla(0, 0%, 100%, 1.00)" stroke="none"></circle><circle r="4.289473684210526" cx="800" cy="320" fill="hsla(0, 0%, 100%, 1.00)" stroke="none"></circle><circle r="4.289473684210526" cx="0" cy="480" fill="hsla(0, 0%, 100%, 1.00)" stroke="none"></circle><circle r="4.289473684210526" cx="160" cy="480" fill="hsla(0, 0%, 100%, 1.00)" stroke="none"></circle><circle r="4.289473684210526" cx="320" cy="480" fill="hsla(0, 0%, 100%, 1.00)" stroke="none"></circle><circle r="4.289473684210526" cx="480" cy="480" fill="hsla(0, 0%, 100%, 1.00)" stroke="none"></circle><circle r="4.289473684210526" cx="640" cy="480" fill="hsla(0, 0%, 100%, 1.00)" stroke="none"></circle><circle r="4.289473684210526" cx="800" cy="480" fill="hsla(0, 0%, 100%, 1.00)" stroke="none"></circle><circle r="4.289473684210526" cx="0" cy="640" fill="hsla(0, 0%, 100%, 1.00)" stroke="none"></circle><circle r="4.289473684210526" cx="160" cy="640" fill="hsla(0, 0%, 100%, 1.00)" stroke="none"></circle><circle r="4.289473684210526" cx="320" cy="640" fill="hsla(0, 0%, 100%, 1.00)" stroke="none"></circle><circle r="4.289473684210526" cx="480" cy="640" fill="hsla(0, 0%, 100%, 1.00)" stroke="none"></circle><circle r="4.289473684210526" cx="640" cy="640" fill="hsla(0, 0%, 100%, 1.00)" stroke="none"></circle><circle r="4.289473684210526" cx="800" cy="640" fill="hsla(0, 0%, 100%, 1.00)" stroke="none"></circle><circle r="4.289473684210526" cx="0" cy="800" fill="hsla(0, 0%, 100%, 1.00)" stroke="none"></circle><circle r="4.289473684210526" cx="160" cy="800" fill="hsla(0, 0%, 100%, 1.00)" stroke="none"></circle><circle r="4.289473684210526" cx="320" cy="800" fill="hsla(0, 0%, 100%, 1.00)" stroke="none"></circle><circle r="4.289473684210526" cx="480" cy="800" fill="hsla(0, 0%, 100%, 1.00)" stroke="none"></circle><circle r="4.289473684210526" cx="640" cy="800" fill="hsla(0, 0%, 100%, 1.00)" stroke="none"></circle><circle r="4.289473684210526" cx="800" cy="800" fill="hsla(0, 0%, 100%, 1.00)" stroke="none"></circle></g></svg>